<?xml version="1.0" encoding="utf-8"?>
<!-- Generator: Adobe Illustrator 16.0.0, SVG Export Plug-In . SVG Version: 6.00 Build 0)  -->
<!DOCTYPE svg PUBLIC "-//W3C//DTD SVG 1.1//EN" "http://www.w3.org/Graphics/SVG/1.1/DTD/svg11.dtd">
<svg version="1.1" id="Calque_1" xmlns="http://www.w3.org/2000/svg" xmlns:xlink="http://www.w3.org/1999/xlink" x="0px" y="0px"
	 width="50px" height="50px" viewBox="0 0 50 50" enable-background="new 0 0 50 50" xml:space="preserve">
<g>
	<path fill="none" stroke="#8781BD" stroke-width="3" stroke-linecap="round" stroke-linejoin="round" stroke-miterlimit="10" d="
		M22.686,42.818l13.182-19.875c0.36-0.562,0.123-1.026-0.534-1.026h-6.221c-0.655,0-1.104-0.401-0.997-1.069l2.139-13.615"/>
	<path fill="none" stroke="#8781BD" stroke-width="3" stroke-linecap="round" stroke-linejoin="round" stroke-miterlimit="10" d="
		M30.255,7.16L16.277,26.346c-0.398,0.537-0.187,1.033,0.469,1.033h6.884c0.656,0,1.152,0.361,1.101,1.036l-2.044,14.479"/>
</g>
<g>
	<path fill="none" stroke="#8781BD" stroke-width="3" stroke-linecap="round" stroke-linejoin="round" stroke-miterlimit="10" d="
		M5.329,27.475c-0.088-0.805-0.133-1.617-0.133-2.448C5.195,12.863,15.058,3,27.223,3C39.389,3,49.25,12.864,49.25,25.027
		c0,12.165-9.861,22.026-22.027,22.026"/>
	
		<polyline fill="none" stroke="#8781BD" stroke-width="3" stroke-linecap="round" stroke-linejoin="round" stroke-miterlimit="10" points="
		10.44,23.977 5.041,28.173 1,21.879 	"/>
</g>
</svg>
