<?xml version="1.0" encoding="utf-8"?>
<!-- Generator: Adobe Illustrator 16.0.0, SVG Export Plug-In . SVG Version: 6.00 Build 0)  -->
<!DOCTYPE svg PUBLIC "-//W3C//DTD SVG 1.1//EN" "http://www.w3.org/Graphics/SVG/1.1/DTD/svg11.dtd">
<svg version="1.1" id="Calque_1" xmlns="http://www.w3.org/2000/svg" xmlns:xlink="http://www.w3.org/1999/xlink" x="0px" y="0px"
	 width="48px" height="48px" viewBox="0 0 48 48" enable-background="new 0 0 48 48" xml:space="preserve">
<g>
	<g>
		<path fill="#FFFFFF" d="M19.658,47.903c-0.189,0-0.381-0.054-0.551-0.167c-0.461-0.305-0.586-0.926-0.281-1.386L35.643,21h-7.707
			c-0.751,0-1.396-0.273-1.82-0.771c-0.398-0.468-0.559-1.095-0.451-1.765l2.752-17.523c0.087-0.546,0.595-0.914,1.144-0.833
			c0.546,0.086,0.918,0.598,0.833,1.144L27.64,18.779c-0.016,0.097-0.005,0.146,0,0.155C27.65,18.947,27.738,19,27.936,19h8.008
			c0.773,0,1.396,0.327,1.707,0.898c0.315,0.579,0.251,1.295-0.18,1.964L20.493,47.456C20.301,47.746,19.982,47.903,19.658,47.903z"
			/>
	</g>
	<g>
		<path fill="#FFFFFF" d="M19.661,48c-0.047,0-0.094-0.003-0.142-0.01c-0.547-0.077-0.928-0.583-0.85-1.13l2.633-18.637l0,0
			c-0.002,0-0.007-0.071-0.029-0.096c-0.033-0.035-0.158-0.101-0.398-0.101h-8.861c-0.777,0-1.395-0.339-1.691-0.93
			c-0.303-0.601-0.196-1.347,0.285-1.996l17.988-24.69c0.326-0.446,0.951-0.544,1.397-0.22c0.446,0.325,0.545,0.951,0.22,1.397
			L12.412,26.021l8.463,0.007c0.759,0,1.421,0.263,1.863,0.74c0.41,0.44,0.601,1.019,0.552,1.67L20.65,47.14
			C20.579,47.64,20.151,48,19.661,48z"/>
	</g>
</g>
</svg>
