<?xml version="1.0" encoding="utf-8"?>
<!-- Generator: Adobe Illustrator 16.0.0, SVG Export Plug-In . SVG Version: 6.00 Build 0)  -->
<!DOCTYPE svg PUBLIC "-//W3C//DTD SVG 1.1//EN" "http://www.w3.org/Graphics/SVG/1.1/DTD/svg11.dtd">
<svg version="1.1" id="Calque_1" xmlns="http://www.w3.org/2000/svg" xmlns:xlink="http://www.w3.org/1999/xlink" x="0px" y="0px"
	 width="50px" height="50px" viewBox="0 0 50 50" enable-background="new 0 0 50 50" xml:space="preserve">
<circle fill="none" stroke="#8781BD" stroke-width="3" stroke-linecap="round" stroke-linejoin="round" stroke-miterlimit="10" cx="25.063" cy="25.093" r="8.612"/>
<path fill="none" stroke="#8781BD" stroke-width="3" stroke-linecap="round" stroke-linejoin="round" stroke-miterlimit="10" d="
	M42.439,29.046l6.311-0.823v-6.319l-6.33-0.83c-0.462-1.988-1.256-3.847-2.324-5.518l3.852-5.115l-4.387-4.355l-5.127,3.903
	c-1.652-1.023-3.478-1.786-5.43-2.229l-0.781-6.387h-6.319L21.07,7.765c-1.988,0.455-3.851,1.238-5.526,2.295l-5.1-3.88
	l-4.356,4.387l3.911,5c-1.07,1.679-1.866,3.544-2.326,5.538l-6.296,0.798v6.318l6.267,0.78c0.448,1.995,1.236,3.858,2.293,5.541
	l-3.754,5.144l4.387,4.354l5.075-3.829c1.655,1.025,3.485,1.796,5.444,2.238l0.816,6.301h6.318l0.842-6.314
	c1.973-0.453,3.813-1.229,5.479-2.276l5.144,3.784l4.354-4.387l-3.854-5.054C41.225,32.848,41.996,31.008,42.439,29.046z"/>
</svg>
